<svg xmlns="http://www.w3.org/2000/svg" xmlns:xlink="http://www.w3.org/1999/xlink" viewBox="0 0 1520 851"><defs><style>.cls-1{font-size:22px;font-family:Montserrat-SemiBold, Montserrat;font-weight:600;}.cls-2{font-size:18px;font-family:Montserrat-Regular, Montserrat;}.cls-3{letter-spacing:-0.01em;}.cls-4{letter-spacing:-0.01em;}.cls-5{letter-spacing:0.01em;}.cls-6{letter-spacing:0em;}.cls-7{letter-spacing:-0.01em;}.cls-8{letter-spacing:0.01em;}.cls-9{letter-spacing:-0.02em;}.cls-10{letter-spacing:-0.02em;}.cls-11{letter-spacing:-0.05em;}.cls-12{letter-spacing:0em;}.cls-13{letter-spacing:-0.02em;}.cls-14{letter-spacing:-0.01em;}.cls-15{letter-spacing:0em;}.cls-16{letter-spacing:-0.01em;}.cls-17{letter-spacing:0em;}.cls-18{letter-spacing:-0.01em;}.cls-19{letter-spacing:0em;}.cls-20{letter-spacing:-0.02em;}.cls-21{letter-spacing:-0.01em;}.cls-22{letter-spacing:-0.04em;}.cls-23{letter-spacing:0.02em;}.cls-24{letter-spacing:-0.01em;}.cls-25{letter-spacing:0em;}.cls-26,.cls-27{font-size:24px;font-family:Montserrat-Medium, Montserrat;font-weight:500;}.cls-27{letter-spacing:-0.01em;}.cls-28{letter-spacing:0em;}</style></defs><g id="Layer_1" data-name="Layer 1"><image width="1440" height="892" transform="translate(-55)" xlink:href="C:%5CUsers%5CLamamba%5CDesktop%5CScreenshot-2023-01-05-at-23-35-13-Dribbble---1-(a)-Digital-Skills-Website@2x.png-by-Arvind-Patel.png"/></g><g id="Layer_2" data-name="Layer 2"><text class="cls-1" transform="translate(768.28 59.28)">Signup</text><text class="cls-2" transform="translate(768.28 90.28)"><tspan class="cls-3">L</tspan><tspan x="10.46" y="0">o</tspan><tspan class="cls-4" x="21.74" y="0">r</tspan><tspan x="28.73" y="0">em ipsum dolor sit ame</tspan><tspan class="cls-5" x="242.94" y="0">t</tspan><tspan class="cls-6" x="250.43" y="0">, </tspan><tspan class="cls-7" x="258.96" y="0">c</tspan><tspan x="268.93" y="0">onse</tspan><tspan class="cls-8" x="312.04" y="0">c</tspan><tspan class="cls-9" x="322.29" y="0">t</tspan><tspan x="329.25" y="0">etur adipis</tspan><tspan class="cls-3" x="424.96" y="0">c</tspan><tspan x="434.95" y="0">ing eli</tspan><tspan class="cls-5" x="489.56" y="0">t</tspan><tspan class="cls-6" x="497.04" y="0">.</tspan><tspan x="0" y="21.6">Mae</tspan><tspan class="cls-7" x="38.68" y="21.6">c</tspan><tspan x="48.65" y="21.6">enas solli</tspan><tspan class="cls-3" x="130.41" y="21.6">c</tspan><tspan x="140.4" y="21.6">itudin eu nisi </tspan><tspan class="cls-10" x="261.61" y="21.6">v</tspan><tspan x="271.09" y="21.6">el pha</tspan><tspan class="cls-4" x="326.52" y="21.6">r</tspan><tspan x="333.5" y="21.6">et</tspan><tspan class="cls-11" x="351.68" y="21.6">r</tspan><tspan x="358.05" y="21.6">a. </tspan></text><text class="cls-1" transform="translate(936.28 205.28)">C<tspan class="cls-12" x="15.99" y="0">h</tspan><tspan x="31.09" y="0">oose </tspan><tspan class="cls-13" x="90.55" y="0">C</tspan><tspan x="106.1" y="0">ourse </tspan><tspan class="cls-14" x="175.6" y="0">P</tspan><tspan class="cls-12" x="191.24" y="0">a</tspan><tspan class="cls-15" x="204.62" y="0">c</tspan><tspan class="cls-16" x="217.29" y="0">k</tspan><tspan class="cls-17" x="231.06" y="0">a</tspan><tspan x="244.44" y="0">ge</tspan></text><text class="cls-2" transform="translate(936.28 236.28)"><tspan class="cls-3">L</tspan><tspan x="10.46" y="0">o</tspan><tspan class="cls-4" x="21.74" y="0">r</tspan><tspan x="28.73" y="0">em ipsum dolor sit ame</tspan><tspan class="cls-5" x="242.94" y="0">t</tspan><tspan class="cls-6" x="250.43" y="0">, </tspan><tspan class="cls-7" x="258.96" y="0">c</tspan><tspan x="268.93" y="0">onse</tspan><tspan class="cls-8" x="312.04" y="0">c</tspan><tspan class="cls-9" x="322.29" y="0">t</tspan><tspan x="329.25" y="0">etur adipis</tspan><tspan class="cls-3" x="424.96" y="0">c</tspan><tspan x="434.95" y="0">ing eli</tspan><tspan class="cls-5" x="489.56" y="0">t</tspan><tspan class="cls-6" x="497.04" y="0">.</tspan><tspan x="0" y="21.6">Mae</tspan><tspan class="cls-7" x="38.68" y="21.6">c</tspan><tspan x="48.65" y="21.6">enas solli</tspan><tspan class="cls-3" x="130.41" y="21.6">c</tspan><tspan x="140.4" y="21.6">itudin eu nisi </tspan><tspan class="cls-10" x="261.61" y="21.6">v</tspan><tspan x="271.09" y="21.6">el pha</tspan><tspan class="cls-4" x="326.52" y="21.6">r</tspan><tspan x="333.5" y="21.6">et</tspan><tspan class="cls-11" x="351.68" y="21.6">r</tspan><tspan x="358.05" y="21.6">a. </tspan></text><text class="cls-1" transform="translate(956.28 410.28)">Re<tspan class="cls-18" x="29.77" y="0">c</tspan><tspan class="cls-19" x="42.37" y="0">ei</tspan><tspan class="cls-20" x="62.41" y="0">v</tspan><tspan x="74.8" y="0">e </tspan><tspan class="cls-21" x="94.55" y="0">T</tspan><tspan class="cls-22" x="107.51" y="0">r</tspan><tspan x="115.81" y="0">aini</tspan><tspan class="cls-12" x="156.95" y="0">n</tspan><tspan x="172.04" y="0">g Link</tspan></text><text class="cls-2" transform="translate(956.28 441.28)"><tspan class="cls-3">L</tspan><tspan x="10.46" y="0">o</tspan><tspan class="cls-4" x="21.74" y="0">r</tspan><tspan x="28.73" y="0">em ipsum dolor sit ame</tspan><tspan class="cls-5" x="242.94" y="0">t</tspan><tspan class="cls-6" x="250.43" y="0">, </tspan><tspan class="cls-7" x="258.96" y="0">c</tspan><tspan x="268.93" y="0">onse</tspan><tspan class="cls-8" x="312.04" y="0">c</tspan><tspan class="cls-9" x="322.29" y="0">t</tspan><tspan x="329.25" y="0">etur adipis</tspan><tspan class="cls-3" x="424.96" y="0">c</tspan><tspan x="434.95" y="0">ing eli</tspan><tspan class="cls-5" x="489.56" y="0">t</tspan><tspan class="cls-6" x="497.04" y="0">.</tspan><tspan x="0" y="21.6">Mae</tspan><tspan class="cls-7" x="38.68" y="21.6">c</tspan><tspan x="48.65" y="21.6">enas solli</tspan><tspan class="cls-3" x="130.41" y="21.6">c</tspan><tspan x="140.4" y="21.6">itudin eu nisi </tspan><tspan class="cls-10" x="261.61" y="21.6">v</tspan><tspan x="271.09" y="21.6">el pha</tspan><tspan class="cls-4" x="326.52" y="21.6">r</tspan><tspan x="333.5" y="21.6">et</tspan><tspan class="cls-11" x="351.68" y="21.6">r</tspan><tspan x="358.05" y="21.6">a. </tspan></text><text class="cls-1" transform="translate(921.28 613.28)">Sta<tspan class="cls-23" x="36.52" y="0">r</tspan><tspan x="46.09" y="0">t </tspan><tspan class="cls-13" x="61.49" y="0">C</tspan><tspan class="cls-19" x="77.04" y="0">ourse</tspan></text><text class="cls-2" transform="translate(921.28 644.28)"><tspan class="cls-3">L</tspan><tspan x="10.46" y="0">o</tspan><tspan class="cls-4" x="21.74" y="0">r</tspan><tspan x="28.73" y="0">em ipsum dolor sit ame</tspan><tspan class="cls-5" x="242.94" y="0">t</tspan><tspan class="cls-6" x="250.43" y="0">, </tspan><tspan class="cls-7" x="258.96" y="0">c</tspan><tspan x="268.93" y="0">onse</tspan><tspan class="cls-8" x="312.04" y="0">c</tspan><tspan class="cls-9" x="322.29" y="0">t</tspan><tspan x="329.25" y="0">etur adipis</tspan><tspan class="cls-3" x="424.96" y="0">c</tspan><tspan x="434.95" y="0">ing eli</tspan><tspan class="cls-5" x="489.56" y="0">t</tspan><tspan class="cls-6" x="497.04" y="0">.</tspan><tspan x="0" y="21.6">Mae</tspan><tspan class="cls-7" x="38.68" y="21.6">c</tspan><tspan x="48.65" y="21.6">enas solli</tspan><tspan class="cls-3" x="130.41" y="21.6">c</tspan><tspan x="140.4" y="21.6">itudin eu nisi </tspan><tspan class="cls-10" x="261.61" y="21.6">v</tspan><tspan x="271.09" y="21.6">el pha</tspan><tspan class="cls-4" x="326.52" y="21.6">r</tspan><tspan x="333.5" y="21.6">et</tspan><tspan class="cls-11" x="351.68" y="21.6">r</tspan><tspan x="358.05" y="21.6">a. </tspan></text><text class="cls-1" transform="translate(732.28 767.28)">Job Res<tspan class="cls-20" x="88.04" y="0">e</tspan><tspan x="101.4" y="0">a</tspan><tspan class="cls-16" x="114.75" y="0">r</tspan><tspan class="cls-24" x="123.77" y="0">c</tspan><tspan x="136.44" y="0">h a</tspan><tspan class="cls-12" x="170.94" y="0">n</tspan><tspan class="cls-25" x="186.03" y="0">d application</tspan></text><text class="cls-2" transform="translate(732.28 798.28)"><tspan class="cls-3">L</tspan><tspan x="10.46" y="0">o</tspan><tspan class="cls-4" x="21.74" y="0">r</tspan><tspan x="28.73" y="0">em ipsum dolor sit ame</tspan><tspan class="cls-5" x="242.94" y="0">t</tspan><tspan class="cls-6" x="250.43" y="0">, </tspan><tspan class="cls-7" x="258.96" y="0">c</tspan><tspan x="268.93" y="0">onse</tspan><tspan class="cls-8" x="312.04" y="0">c</tspan><tspan class="cls-9" x="322.29" y="0">t</tspan><tspan x="329.25" y="0">etur adipis</tspan><tspan class="cls-3" x="424.96" y="0">c</tspan><tspan x="434.95" y="0">ing eli</tspan><tspan class="cls-5" x="489.56" y="0">t</tspan><tspan class="cls-6" x="497.04" y="0">.</tspan><tspan x="0" y="21.6">Mae</tspan><tspan class="cls-7" x="38.68" y="21.6">c</tspan><tspan x="48.65" y="21.6">enas solli</tspan><tspan class="cls-3" x="130.41" y="21.6">c</tspan><tspan x="140.4" y="21.6">itudin eu nisi </tspan><tspan class="cls-10" x="261.61" y="21.6">v</tspan><tspan x="271.09" y="21.6">el pha</tspan><tspan class="cls-4" x="326.52" y="21.6">r</tspan><tspan x="333.5" y="21.6">et</tspan><tspan class="cls-11" x="351.68" y="21.6">r</tspan><tspan x="358.05" y="21.6">a. </tspan></text><text class="cls-26" transform="translate(536.28 68.12)">01</text><text class="cls-26" transform="translate(700.28 216.12)">02</text><text class="cls-27" transform="translate(756.28 415.12)">0<tspan class="cls-28" x="15.77" y="0">3</tspan></text><text class="cls-26" transform="translate(713.28 619.12)">04</text><text class="cls-26" transform="translate(532.28 780.12)">05</text></g></svg>